<svg xmlns="http://www.w3.org/2000/svg" width="100" height="47"><path fill="#2FAB16" d="m52.359 1.47-2.261 12.314a.37.37 0 0 1-.382.316h-2.584c-.194 0-.353-.11-.382-.297L45.442 4.75l-1.312 9.053c-.028.187-.185.297-.38.297h-2.585a.37.37 0 0 1-.38-.316L38.525 1.47c-.037-.225.066-.382.326-.382h1.775c.204 0 .354.112.382.297l1.525 9.722 1.505-9.722a.365.365 0 0 1 .351-.297h2.102c.168 0 .325.131.353.297l1.506 9.722 1.526-9.722c.028-.185.175-.297.382-.297h1.775c.259 0 .361.157.326.382m1.721 12.631h6.366a.35.35 0 0 0 .344-.354v-1.385a.35.35 0 0 0-.344-.344H56.29V8.487h3.701a.355.355 0 0 0 .354-.355V6.758a.354.354 0 0 0-.354-.353H56.29V3.17h4.017a.35.35 0 0 0 .354-.345V1.441a.353.353 0 0 0-.354-.353H54.08a.35.35 0 0 0-.354.353v12.306c0 .196.157.354.354.354m8.78-.001h6.591a.35.35 0 0 0 .343-.353v-1.413a.35.35 0 0 0-.343-.353h-4.378V1.441a.36.36 0 0 0-.353-.353h-1.86a.354.354 0 0 0-.354.353v12.306c0 .196.16.353.354.353m10.846-.353V3.17h2.379a.35.35 0 0 0 .352-.344V1.441a.35.35 0 0 0-.352-.353H68.76a.353.353 0 0 0-.354.353v1.385c0 .187.159.344.354.344h2.379v10.577a.36.36 0 0 0 .354.353h1.859a.353.353 0 0 0 .354-.353m-25.664 3.601h-1.86a.354.354 0 0 0-.351.355v4.702h-3.366v-4.702a.354.354 0 0 0-.344-.355h-1.869a.356.356 0 0 0-.354.355V30.01c0 .194.16.353.354.353h1.869a.35.35 0 0 0 .344-.353v-5.522h3.366v5.522c0 .194.157.353.351.353h1.86a.354.354 0 0 0 .353-.353V17.703a.355.355 0 0 0-.353-.355m11.256 8.294v-7.939a.353.353 0 0 0-.35-.355h-1.869a.35.35 0 0 0-.345.355v8.068c0 1.896-.538 2.695-1.766 2.695-1.226 0-1.765-.799-1.765-2.695v-8.068a.356.356 0 0 0-.354-.355h-1.86a.355.355 0 0 0-.353.355v7.939c0 3.513 1.655 4.944 4.332 4.944s4.33-1.431 4.33-4.944m7.891 4.721h2.604a.355.355 0 0 0 .354-.354V17.702a.355.355 0 0 0-.354-.354h-1.712a.36.36 0 0 0-.351.354v8.701l-2.855-8.792c-.047-.159-.185-.263-.38-.263h-2.604a.355.355 0 0 0-.353.354v12.307c0 .195.159.354.353.354h1.713a.36.36 0 0 0 .351-.354v-8.7l2.854 8.794c.047.157.186.26.38.26m13.322-7.436h-3.886a.35.35 0 0 0-.354.345v1.384c0 .194.157.354.354.354h1.895v3.309c-.204.11-.595.147-1.003.147-1.934 0-3.125-1.616-3.125-4.609 0-3.05 1.247-4.612 3.366-4.612.855 0 1.654.186 2.305.54.241.131.485.074.501-.204l.104-1.534c.009-.167-.094-.251-.223-.317-.818-.407-1.897-.604-2.909-.604-3.644 0-5.745 2.548-5.745 6.731 0 4.312 2.214 6.729 5.67 6.729 1.302 0 2.37-.232 3.16-.679.187-.101.241-.223.241-.427v-6.208a.35.35 0 0 0-.351-.345m9.162 5.354h-4.155V24.75h3.7a.355.355 0 0 0 .354-.355v-1.377a.35.35 0 0 0-.354-.35h-3.7v-3.237h4.017a.35.35 0 0 0 .353-.342v-1.387a.355.355 0 0 0-.353-.354h-6.228a.354.354 0 0 0-.354.354v12.309c0 .193.157.352.354.352h6.366a.35.35 0 0 0 .344-.352v-1.385a.35.35 0 0 0-.344-.345m9.942 2.083H97.72a.4.4 0 0 1-.326-.216l-2.109-4.804h-1.04v4.666c0 .194-.16.354-.344.354h-1.822a.35.35 0 0 1-.345-.354V17.703c0-.195.157-.354.345-.354h3.429c2.398 0 3.978 1.321 3.978 3.998 0 1.803-.707 2.974-1.897 3.569l2.342 4.944c.14.297.028.504-.316.504m-2.678-9.017c0-1.376-.519-1.989-1.521-1.989h-1.171v3.977h1.171c1.002 0 1.521-.614 1.521-1.988M48.042 33.612h-1.86a.35.35 0 0 0-.351.353v4.703h-3.366v-4.702a.35.35 0 0 0-.344-.354h-1.869a.354.354 0 0 0-.354.354V46.27c0 .197.16.355.354.355h1.869a.35.35 0 0 0 .344-.355v-5.52h3.366v5.52c0 .197.157.355.351.355h1.86a.354.354 0 0 0 .353-.355V33.966a.353.353 0 0 0-.353-.354m4.9 0h-1.86a.354.354 0 0 0-.353.353V46.27c0 .197.16.354.353.354h1.86a.353.353 0 0 0 .354-.354V33.966a.353.353 0 0 0-.354-.354m9.624 10.893h-4.379V33.966a.36.36 0 0 0-.352-.354h-1.859a.35.35 0 0 0-.354.354V46.27c0 .197.157.355.354.355h6.59a.35.35 0 0 0 .342-.355v-1.412a.35.35 0 0 0-.342-.353m8.213-10.893h-6.236a.35.35 0 0 0-.345.353V46.27c0 .197.159.354.345.354h1.868a.354.354 0 0 0 .355-.354v-5.279h3.697a.35.35 0 0 0 .354-.353v-1.374a.353.353 0 0 0-.354-.354h-3.697v-3.216h4.013a.35.35 0 0 0 .354-.345v-1.383a.35.35 0 0 0-.354-.354m8.363 10.929h-4.154V41.01h3.698a.35.35 0 0 0 .354-.353v-1.375a.354.354 0 0 0-.354-.354h-3.698v-3.234h4.014a.35.35 0 0 0 .354-.345v-1.384a.35.35 0 0 0-.354-.353h-6.228a.35.35 0 0 0-.353.353V46.27c0 .197.158.354.353.354h6.368a.35.35 0 0 0 .345-.354v-1.384a.35.35 0 0 0-.345-.345m-65.026-7.003-1.625 8.858a.27.27 0 0 1-.275.228h-1.86c-.14 0-.253-.08-.273-.215l-.943-6.511-.943 6.511c-.019.135-.133.215-.273.215H6.065a.27.27 0 0 1-.276-.228l-1.624-8.858c-.027-.162.047-.275.234-.275h1.277c.147 0 .254.08.275.215l1.096 6.992 1.083-6.992a.266.266 0 0 1 .254-.215h1.511c.12 0 .235.094.256.215l1.083 6.992 1.095-6.992c.02-.135.128-.215.276-.215h1.277c.186 0 .26.113.234.275m6.853-.275h-1.338a.254.254 0 0 0-.254.254v3.385h-2.42v-3.385a.25.25 0 0 0-.247-.254h-1.344a.254.254 0 0 0-.254.254v8.853c0 .14.113.255.254.255h1.344a.254.254 0 0 0 .247-.255v-3.972h2.42v3.972c0 .14.114.255.254.255h1.338a.255.255 0 0 0 .255-.255v-8.853a.254.254 0 0 0-.255-.254m7.73 0h-1.338a.254.254 0 0 0-.254.254v3.385h-2.421v-3.385a.25.25 0 0 0-.247-.254h-1.344a.254.254 0 0 0-.254.254v8.853c0 .14.114.255.254.255h1.344a.253.253 0 0 0 .247-.255v-3.972h2.421v3.972c0 .14.113.255.254.255h1.338a.255.255 0 0 0 .254-.255v-8.853a.253.253 0 0 0-.254-.254M24.16 19.238a9.19 9.19 0 0 0-6.805 3.984v-.519c0-3.878 2.973-7.161 6.805-7.562zm-6.758 8.321c3.453-.341 6.377-3.261 6.711-6.711a7.55 7.55 0 0 0-3.245 1.147c-1.916 1.214-3.226 3.31-3.466 5.564M8.754 8.022a9.13 9.13 0 0 1 7.802 5.424 9.13 9.13 0 0 1 7.802-5.424c.442-.025.913-.032 1.395-.025h4.739C27.55 3.413 22.408.375 16.556.375c-5.851 0-10.993 3.038-13.935 7.622H7.36c.482-.007.953 0 1.394.025m17.001 5.498h6.997a16.4 16.4 0 0 0-1.37-3.951h-5.625zM24.16 9.639c-3.832.401-6.805 3.685-6.805 7.563v.318a9.19 9.19 0 0 1 6.805-3.983zm-8.402 7.563c0-3.878-2.973-7.162-6.805-7.563v3.898a9.19 9.19 0 0 1 6.805 3.983zm7.378 9.233-.034.033a9.12 9.12 0 0 1-5.727 2.698h-.01v4.283c7.453-.359 13.612-5.649 15.287-12.679h-6.931a9.17 9.17 0 0 1-2.585 5.665m-7.388 7.013v-4.282h-.011a9.13 9.13 0 0 1-5.727-2.698l-.033-.033a9.2 9.2 0 0 1-2.586-5.665H.461c1.675 7.029 7.834 12.32 15.287 12.678m10.005-18.355-.002 4.105h7.195a16.6 16.6 0 0 0 .056-4.105zM7.356 9.569H1.73A16.5 16.5 0 0 0 .36 13.52h6.998zm4.889 12.426A7.56 7.56 0 0 0 9 20.848c.334 3.45 3.258 6.37 6.71 6.711-.24-2.254-1.549-4.35-3.465-5.564m3.513.708c0-3.878-2.973-7.161-6.805-7.562v4.097a9.19 9.19 0 0 1 6.805 3.984zm-8.399-7.61H.111a16.7 16.7 0 0 0 .055 4.105h7.196z"/></svg>